<svg width="34" height="34" viewBox="0 0 34 34" fill="none" xmlns="http://www.w3.org/2000/svg">
<g clip-path="url(#clip0_1_2)">
<path d="M23.169 29.0624C24.7964 30.6898 27.435 30.6898 29.0624 29.0624C30.6899 27.435 30.6899 24.7964 29.0624 23.169C25.6784 19.7849 25.6784 14.2983 29.0624 10.9143C30.6899 9.28686 30.6899 6.64822 29.0624 5.02081C27.435 3.3934 24.7964 3.3934 23.169 5.02081C19.7849 8.40488 14.2983 8.40486 10.9143 5.02083C9.28684 3.39338 6.64822 3.3934 5.02082 5.02081C3.39341 6.64822 3.39339 9.28684 5.02083 10.9143C8.40487 14.2983 8.40487 19.7849 5.02083 23.169C3.39339 24.7964 3.39341 27.435 5.02082 29.0624C6.64822 30.6898 9.28684 30.6899 10.9143 29.0624C14.2983 25.6784 19.7849 25.6784 23.169 29.0624Z" fill="white"/>
</g>
<defs>
<clipPath id="clip0_1_2">
<rect width="34" height="34" fill="white"/>
</clipPath>
</defs>
</svg>
