<svg width="34" height="34" viewBox="0 0 34 34" fill="none" xmlns="http://www.w3.org/2000/svg">
<path id="Union" d="M12.8327 29.8327C12.8327 32.1342 14.6985 34 17 34C19.3015 34 21.1673 32.1342 21.1673 29.8327C21.1673 25.0469 25.0469 21.1673 29.8327 21.1673C32.1342 21.1673 34 19.3015 34 17C34 14.6985 32.1342 12.8327 29.8327 12.8327C25.0469 12.8327 21.1673 8.95307 21.1673 4.16732C21.1673 1.86577 19.3015 0 17 0C14.6985 0 12.8327 1.86577 12.8327 4.16732C12.8327 8.95307 8.95307 12.8327 4.16732 12.8327C1.86577 12.8327 0 14.6985 0 17C0 19.3015 1.86577 21.1673 4.16732 21.1673C8.95307 21.1673 12.8327 25.0469 12.8327 29.8327Z" fill="#EB5353"/>
</svg>
