<?xml version="1.0" standalone="no"?>
<!DOCTYPE svg PUBLIC "-//W3C//DTD SVG 20010904//EN"
 "http://www.w3.org/TR/2001/REC-SVG-20010904/DTD/svg10.dtd">
<svg version="1.0" xmlns="http://www.w3.org/2000/svg"
 width="600.000000pt" height="338.000000pt" viewBox="0 0 600.000000 338.000000"
 preserveAspectRatio="xMidYMid meet">
<metadata>
Created by potrace 1.16, written by Peter Selinger 2001-2019
</metadata>
<g transform="translate(0.000000,338.000000) scale(0.100000,-0.100000)"
fill="none" stroke="none">
<path d="M0 1690 l0 -1690 3000 0 3000 0 0 1690 0 1690 -3000 0 -3000 0 0
-1690z m3210 1622 c0 -46 -2 -50 -80 -127 l-80 -80 0 -271 0 -271 -25 -23
c-24 -23 -25 -27 -25 -170 l0 -146 40 -39 c37 -36 40 -43 40 -95 l0 -55 -85
-85 c-46 -46 -87 -81 -90 -78 -3 3 33 43 80 88 82 81 85 85 85 130 0 40 -5 51
-40 85 l-40 39 0 156 c0 144 2 158 20 175 19 17 20 31 20 289 l0 271 81 80
c79 79 80 81 76 122 -2 23 -2 45 1 48 15 14 22 0 22 -43z m-1330 -422 l76 0
195 -195 c115 -116 196 -205 199 -220 3 -13 40 -60 83 -104 73 -76 77 -81 75
-123 l-1 -43 -4 41 c-4 35 -14 50 -83 119 -58 57 -80 87 -80 105 0 19 -45 69
-192 217 l-193 193 -78 0 -79 0 -229 228 c-126 126 -227 231 -224 233 2 3 107
-97 232 -223 l227 -228 76 0z m478 428 c1 -26 14 -45 71 -101 l71 -69 0 -222
0 -221 120 -120 120 -120 -2 -135 -2 -135 -3 130 -4 130 -119 120 -119 120 -2
221 -1 221 -74 74 c-62 62 -74 79 -74 106 0 42 17 43 18 1z m452 -146 l0 -178
55 -54 55 -54 0 -421 0 -420 -112 -112 -113 -113 -390 0 -390 0 -47 46 c-27
25 -48 49 -48 55 0 5 22 -13 50 -41 l50 -50 382 0 383 0 107 107 108 108 0
420 0 419 -54 56 -55 55 -3 178 c-2 136 0 177 10 177 9 0 12 -42 12 -178z
m1530 170 c0 -5 -65 -73 -145 -152 l-145 -144 0 -72 0 -73 -326 -325 c-266
-265 -325 -328 -320 -344 7 -21 -8 -39 -18 -23 -15 24 34 79 333 380 l321 323
0 74 0 73 143 145 c135 138 157 157 157 138z m-3562 -157 l153 -155 153 0 153
0 187 -185 186 -185 150 0 c82 0 150 -4 150 -8 0 -5 -30 -7 -67 -6 -38 1 -107
2 -155 3 l-86 1 -179 180 -180 181 -156 2 -156 2 -161 159 c-88 88 -160 161
-160 163 0 14 35 -17 168 -152z m3033 132 c-1 -4 -1 -42 -1 -84 l0 -78 -165
-163 -165 -164 0 -147 0 -146 -125 -125 -125 -125 0 -65 c0 -64 1 -67 43 -108
l43 -42 81 0 81 0 61 66 c34 36 65 63 69 59 4 -3 -23 -35 -60 -71 l-66 -64
-88 0 -88 0 -48 47 c-48 47 -48 48 -48 113 l0 65 125 125 125 125 0 149 0 149
165 164 165 163 0 86 c0 57 4 84 11 82 6 -2 10 -7 10 -11z m-774 -95 l-27 -28
0 -190 c0 -190 0 -191 -25 -214 l-25 -23 0 -302 0 -301 30 -29 c24 -23 30 -37
30 -70 0 -39 -6 -46 -138 -178 l-138 -138 -114 4 -115 3 115 2 115 2 133 133
c126 126 132 134 132 173 0 32 -6 46 -30 69 l-30 29 0 306 0 307 25 23 26 24
-1 189 -1 189 27 29 c15 16 30 27 33 24 2 -3 -8 -18 -22 -33z m-734 -319 l137
-138 0 -50 0 -50 130 -130 130 -130 0 -95 0 -94 -62 -63 -62 -63 -61 0 -60 0
-261 260 c-144 143 -259 262 -256 265 8 8 22 6 22 -3 0 -5 113 -122 251 -260
l251 -252 52 0 c50 0 54 2 109 58 l57 58 0 94 0 95 -130 130 -130 130 0 50 0
51 -130 129 c-112 110 -142 145 -127 145 2 0 65 -62 140 -137z m3687 -121 c0
-4 -35 -6 -77 -4 l-78 3 -115 -115 -115 -116 -180 0 -181 0 -64 -65 -64 -65
-461 0 -460 0 -82 -82 -83 -83 0 -85 0 -85 -107 -107 -108 -107 -168 -3 c-92
-2 -166 1 -164 5 1 5 74 8 162 8 l159 -2 108 108 108 108 0 85 0 85 82 82 83
83 460 0 461 0 64 65 64 65 181 0 180 0 115 115 114 114 75 3 c79 3 91 2 91
-10z m-5438 -569 l99 -98 301 -1 300 -1 97 -97 97 -97 149 2 c82 0 151 -3 152
-7 2 -5 -68 -8 -154 -6 l-158 3 -95 95 -95 94 -300 0 -300 0 -95 95 -95 95
-222 0 c-123 0 -223 4 -223 9 0 5 99 9 221 10 l221 2 100 -98z m2728 -217 c0
-11 -9 -13 -36 -9 -34 6 -40 2 -105 -63 l-70 -69 2 -104 1 -103 -121 -122
-121 -121 0 -265 0 -265 -107 -107 -108 -108 -85 0 -85 0 -88 -88 -88 -88 1
-230 c1 -126 -1 -228 -5 -226 -4 1 -6 107 -5 235 l1 232 87 88 87 87 85 0 85
0 102 102 103 103 0 265 0 265 125 125 125 125 0 105 0 106 68 66 c52 52 75
68 102 71 19 2 38 5 43 5 4 1 7 -4 7 -12z m-250 -219 l0 -52 -165 -165 c-159
-159 -165 -166 -165 -205 0 -35 6 -47 40 -80 l40 -39 0 -171 0 -171 -73 -72
-72 -72 -100 0 -100 0 -153 -153 -153 -153 2 -207 c1 -114 -2 -207 -6 -207 -3
0 -6 96 -5 213 l1 212 152 153 152 152 100 0 100 0 72 72 73 72 0 161 0 161
-40 39 c-36 35 -40 44 -40 90 l0 50 160 160 160 160 0 52 c0 29 5 53 10 53 6
0 10 -24 10 -53z m-355 -127 c-4 -6 -81 -10 -199 -10 l-192 0 -44 -45 -44 -45
-211 0 -212 0 -23 25 c-17 18 -34 25 -59 25 -32 0 -46 -10 -121 -85 l-85 -85
-114 0 -115 0 -56 -55 -56 -56 -196 1 -196 0 -137 -135 -137 -135 -224 0
c-132 0 -224 4 -224 9 0 6 94 10 228 11 l227 0 130 130 130 130 200 0 201 0
54 55 54 55 111 0 110 0 85 85 c82 82 86 85 131 85 33 0 51 -6 64 -20 17 -19
31 -20 228 -20 l210 0 48 45 48 45 196 0 c128 0 194 -3 190 -10z m1370 -130
l51 -50 90 0 89 0 100 -100 100 -100 183 0 183 0 58 -55 58 -55 404 0 404 0
113 -112 c61 -61 110 -113 108 -115 -2 -2 -52 46 -111 107 l-108 110 -411 0
-412 0 -49 50 -49 50 -186 0 -185 0 -105 105 -105 105 -90 0 -91 0 -49 50 -50
51 -250 -1 c-137 -1 -251 2 -252 7 -2 4 113 7 254 5 l258 -3 50 -49z m180
-290 l260 -260 99 0 99 0 95 -96 c94 -94 96 -96 134 -90 23 4 38 2 38 -4 0 -5
-19 -10 -43 -10 -40 0 -47 5 -137 95 l-95 95 -100 0 -100 0 -256 256 -257 256
-118 -1 c-87 -2 -123 -6 -135 -17 -12 -11 -55 -14 -210 -14 l-194 0 -88 -88
-87 -87 0 -279 0 -279 56 -59 56 -58 -5 -83 -4 -82 103 -106 104 -105 0 -97
c0 -53 -4 -97 -8 -97 -4 0 -6 42 -4 93 l4 92 -106 105 -106 105 0 90 0 91 -50
49 -50 49 0 290 0 291 87 87 88 88 196 0 c183 0 197 1 214 20 16 18 31 20 139
20 l121 0 260 -260z m-430 120 c38 -39 41 -40 109 -40 l71 0 82 -82 c82 -82
83 -83 83 -134 0 -48 3 -53 56 -107 l57 -57 160 0 160 0 137 -135 136 -135
245 0 245 0 44 -45 44 -45 278 0 c179 0 278 -4 278 -10 0 -6 -99 -10 -276 -10
l-275 0 -53 50 -53 50 -244 0 -244 0 -130 130 -130 130 -160 0 -159 0 -63 62
c-61 60 -63 64 -63 113 0 49 -1 51 -82 132 l-83 83 -70 0 c-70 0 -72 1 -110
40 l-39 40 -195 0 -195 0 -63 -62 -63 -62 0 -250 0 -251 74 -75 75 -75 2 -70
c1 -38 -1 -68 -6 -65 -4 3 -7 31 -6 64 l3 58 -81 83 -81 83 0 243 0 244 72 72
72 73 201 0 201 0 39 -40z m-1205 -127 c0 -4 -30 -38 -67 -75 l-67 -68 -61 0
-60 0 -240 -240 -240 -240 -70 0 c-67 0 -73 -2 -113 -37 l-42 -36 0 -207 0
-206 -45 -44 c-24 -24 -47 -41 -51 -38 -3 4 15 25 40 48 l46 43 0 200 0 201
42 43 c42 43 43 43 113 43 l70 0 240 240 240 240 61 0 61 0 64 69 c61 65 79
80 79 64z m881 -73 l-3 -53 104 -104 103 -103 55 0 55 0 227 -227 228 -228 0
-61 0 -60 144 -142 c79 -78 141 -143 139 -145 -2 -2 -69 62 -148 142 l-145
146 0 60 0 60 -222 221 -223 221 -60 2 -60 2 -101 102 -102 102 -5 63 c-4 44
-2 62 6 59 7 -2 10 -24 8 -57z m-2418 -226 c1 -4 -29 -6 -68 -5 l-70 2 -185
-186 c-170 -170 -188 -185 -220 -185 -30 0 -45 -9 -95 -60 l-59 -60 -173 0
c-95 0 -173 3 -173 8 0 4 75 6 167 4 l168 -3 60 60 c50 52 65 61 95 61 32 0
50 15 220 185 l184 184 71 3 c76 3 76 3 78 -8z"/>
</g>
</svg>
